<svg width="20" height="23" viewBox="0 0 20 23" fill="none" xmlns="http://www.w3.org/2000/svg">
<path d="M19.1604 16.0558L17.1604 14.9058L18.0504 14.6658C18.1811 14.6353 18.3043 14.5789 18.4127 14.4998C18.5212 14.4207 18.6126 14.3206 18.6815 14.2055C18.7504 14.0903 18.7955 13.9624 18.8139 13.8295C18.8324 13.6966 18.8239 13.5613 18.789 13.4317C18.7541 13.3021 18.6935 13.1809 18.6107 13.0752C18.528 12.9696 18.4248 12.8817 18.3073 12.8167C18.1899 12.7518 18.0606 12.7112 17.9271 12.6972C17.7936 12.6833 17.6587 12.6964 17.5304 12.7358L14.7104 13.4958L12.0004 11.9258L14.7104 10.3558L17.5304 11.1158H17.7904C18.0556 11.1503 18.3236 11.078 18.5355 10.9148C18.7475 10.7517 18.8859 10.511 18.9204 10.2458C18.9548 9.98056 18.8825 9.71251 18.7194 9.5006C18.5562 9.28868 18.3156 9.15026 18.0504 9.11578L17.1604 8.92578L19.1604 7.77578C19.2746 7.71012 19.3748 7.6226 19.4552 7.51821C19.5357 7.41383 19.5947 7.29463 19.6291 7.16741C19.6635 7.04019 19.6724 6.90746 19.6555 6.77678C19.6385 6.6461 19.596 6.52003 19.5304 6.40578C19.4647 6.29153 19.3772 6.19133 19.2728 6.11091C19.1684 6.03048 19.0492 5.9714 18.922 5.93705C18.7948 5.90269 18.662 5.89372 18.5314 5.91066C18.4007 5.92761 18.2746 5.97012 18.1604 6.03578L16.0004 7.29578L16.3004 6.18578C16.3397 6.05747 16.3528 5.92255 16.3389 5.78906C16.325 5.65558 16.2844 5.52626 16.2194 5.40881C16.1545 5.29136 16.0666 5.18818 15.9609 5.10543C15.8552 5.02267 15.734 4.96203 15.6044 4.92712C15.4748 4.8922 15.3396 4.88373 15.2066 4.9022C15.0737 4.92068 14.9458 4.96572 14.8307 5.03465C14.7155 5.10357 14.6154 5.19497 14.5363 5.3034C14.4573 5.41183 14.4008 5.53507 14.3704 5.66578L13.5504 8.66578L11.0004 10.1958V7.06578L13.0704 4.99578C13.2566 4.80842 13.3612 4.55497 13.3612 4.29078C13.3612 4.0266 13.2566 3.77314 13.0704 3.58578C12.9774 3.49205 12.8668 3.41766 12.7449 3.36689C12.6231 3.31612 12.4924 3.28998 12.3604 3.28998C12.2283 3.28998 12.0976 3.31612 11.9758 3.36689C11.8539 3.41766 11.7433 3.49205 11.6504 3.58578L11.0004 4.23578V1.92578C11.0004 1.66056 10.895 1.40621 10.7075 1.21867C10.5199 1.03114 10.2656 0.925781 10.0004 0.925781C9.73514 0.925781 9.48079 1.03114 9.29325 1.21867C9.10571 1.40621 9.00036 1.66056 9.00036 1.92578V4.39578L8.19036 3.58578C8.09739 3.49205 7.98679 3.41766 7.86493 3.36689C7.74308 3.31612 7.61237 3.28998 7.48036 3.28998C7.34835 3.28998 7.21764 3.31612 7.09578 3.36689C6.97392 3.41766 6.86332 3.49205 6.77036 3.58578C6.58411 3.77314 6.47957 4.0266 6.47957 4.29078C6.47957 4.55497 6.58411 4.80842 6.77036 4.99578L9.00036 7.22578V10.2258L6.43036 8.70578L5.61036 5.70578C5.57991 5.57507 5.52346 5.45183 5.44437 5.3434C5.36528 5.23497 5.26518 5.14357 5.15003 5.07465C5.03487 5.00572 4.90702 4.96068 4.77409 4.9422C4.64116 4.92373 4.50587 4.9322 4.37629 4.96712C4.2467 5.00203 4.12547 5.06267 4.01981 5.14543C3.91416 5.22818 3.82624 5.33136 3.7613 5.44881C3.69636 5.56626 3.65573 5.69558 3.64182 5.82906C3.62792 5.96255 3.64102 6.09747 3.68036 6.22578L4.00036 7.29578L1.84036 6.05578C1.72611 5.99012 1.60004 5.94761 1.46936 5.93066C1.33868 5.91372 1.20594 5.92269 1.07873 5.95705C0.951512 5.9914 0.832309 6.05048 0.727925 6.13091C0.62354 6.21133 0.536019 6.31153 0.470358 6.42578C0.404697 6.54003 0.362182 6.6661 0.345241 6.79678C0.3283 6.92746 0.337264 7.06019 0.371622 7.18741C0.44101 7.44434 0.60962 7.66317 0.840358 7.79578L2.84036 8.92578L2.00036 9.18578C1.73514 9.22026 1.49448 9.35868 1.33133 9.5706C1.16817 9.78251 1.09588 10.0506 1.13036 10.3158C1.16484 10.581 1.30326 10.8217 1.51518 10.9848C1.72709 11.148 1.99514 11.2203 2.26036 11.1858H2.52036L5.34036 10.4258L8.00036 11.9258L5.29036 13.4958L2.47036 12.7358C2.33804 12.6866 2.19682 12.6661 2.05598 12.6754C1.91515 12.6848 1.77789 12.7239 1.65323 12.7901C1.52857 12.8563 1.41934 12.9481 1.33272 13.0595C1.2461 13.171 1.18405 13.2995 1.15065 13.4366C1.11726 13.5738 1.11327 13.7164 1.13896 13.8552C1.16464 13.994 1.21941 14.1258 1.29968 14.2419C1.37994 14.358 1.48387 14.4558 1.60464 14.5288C1.7254 14.6019 1.86026 14.6486 2.00036 14.6658L2.89036 14.9058L0.890358 16.0558C0.65962 16.1884 0.49101 16.4072 0.421622 16.6642C0.352233 16.9211 0.38775 17.195 0.520358 17.4258C0.652966 17.6565 0.871804 17.8251 1.12873 17.8945C1.38565 17.9639 1.65962 17.9284 1.89036 17.7958L4.00036 16.5558L3.70036 17.6658C3.66072 17.7938 3.64721 17.9285 3.66063 18.0618C3.67406 18.1951 3.71414 18.3244 3.77851 18.4419C3.84287 18.5594 3.9302 18.6628 4.03531 18.746C4.14041 18.8291 4.26116 18.8902 4.39036 18.9258C4.47675 18.9356 4.56397 18.9356 4.65036 18.9258C4.87612 18.9335 5.09785 18.8646 5.27943 18.7302C5.46102 18.5958 5.59176 18.4039 5.65036 18.1858L6.47036 15.1858L9.00036 13.6558V16.7858L6.93036 18.8558C6.74411 19.0431 6.63956 19.2966 6.63956 19.5608C6.63956 19.825 6.74411 20.0784 6.93036 20.2658C7.02297 20.3603 7.13342 20.4354 7.25529 20.4869C7.37717 20.5384 7.50805 20.5652 7.64036 20.5658C7.77267 20.5652 7.90355 20.5384 8.02542 20.4869C8.1473 20.4354 8.25774 20.3603 8.35036 20.2658L9.00036 19.6158V21.9258C9.00036 22.191 9.10571 22.4454 9.29325 22.6329C9.48079 22.8204 9.73514 22.9258 10.0004 22.9258C10.2656 22.9258 10.5199 22.8204 10.7075 22.6329C10.895 22.4454 11.0004 22.191 11.0004 21.9258V19.4558L11.8104 20.2658C11.9033 20.3595 12.0139 20.4339 12.1358 20.4847C12.2576 20.5354 12.3883 20.5616 12.5204 20.5616C12.6524 20.5616 12.7831 20.5354 12.9049 20.4847C13.0268 20.4339 13.1374 20.3595 13.2304 20.2658C13.4166 20.0784 13.5212 19.825 13.5212 19.5608C13.5212 19.2966 13.4166 19.0431 13.2304 18.8558L11.0004 16.6258V13.6258L13.5704 15.1158L14.3904 18.1158C14.449 18.3339 14.5797 18.5258 14.7613 18.6602C14.9429 18.7946 15.1646 18.8635 15.3904 18.8558C15.4767 18.8656 15.564 18.8656 15.6504 18.8558C15.778 18.8221 15.8978 18.7635 16.0027 18.6834C16.1076 18.6032 16.1956 18.5031 16.2616 18.3887C16.3276 18.2744 16.3703 18.1481 16.3873 18.0171C16.4042 17.8862 16.3951 17.7532 16.3604 17.6258L16.0004 16.5558L18.1404 17.7958C18.2546 17.8614 18.3807 17.904 18.5114 17.9209C18.642 17.9378 18.7748 17.9289 18.902 17.8945C19.0292 17.8602 19.1484 17.8011 19.2528 17.7207C19.3572 17.6402 19.4447 17.54 19.5104 17.4258C19.576 17.3115 19.6185 17.1855 19.6355 17.0548C19.6524 16.9241 19.6435 16.7914 19.6091 16.6642C19.5747 16.5369 19.5157 16.4177 19.4352 16.3133C19.3548 16.209 19.2546 16.1214 19.1404 16.0558H19.1604Z" fill="#404040" fill-opacity="0.8"/>
</svg>
