<svg width="18" height="14" viewBox="0 0 18 14" fill="none" xmlns="http://www.w3.org/2000/svg">
<path fill-rule="evenodd" clip-rule="evenodd" d="M15.2498 1.06255L8.99978 10.4376L2.74978 1.06255C2.66771 0.939437 2.56218 0.833694 2.43924 0.75136C2.3163 0.669026 2.17834 0.611714 2.03325 0.582696C1.88816 0.553678 1.73877 0.553523 1.59362 0.582238C1.44847 0.610952 1.3104 0.667975 1.18728 0.750051C1.06417 0.832128 0.958425 0.937649 0.876091 1.06059C0.793758 1.18353 0.736446 1.32149 0.707427 1.46658C0.678409 1.61167 0.678253 1.76106 0.706967 1.90621C0.735682 2.05136 0.792706 2.18944 0.874782 2.31255L7.95978 12.9401C8.07394 13.1112 8.22859 13.2516 8.41001 13.3487C8.59143 13.4458 8.79402 13.4966 8.99978 13.4966C9.20555 13.4966 9.40813 13.4458 9.58956 13.3487C9.77098 13.2516 9.92563 13.1112 10.0398 12.9401L17.1248 2.31255C17.2069 2.18944 17.2639 2.05136 17.2926 1.90621C17.3213 1.76106 17.3212 1.61167 17.2921 1.46658C17.2631 1.32149 17.2058 1.18353 17.1235 1.06059C17.0411 0.937649 16.9354 0.832128 16.8123 0.750051C16.6892 0.667975 16.5511 0.610952 16.4059 0.582238C16.2608 0.553523 16.1114 0.553678 15.9663 0.582696C15.8212 0.611714 15.6833 0.669026 15.5603 0.75136C15.4374 0.833694 15.3319 0.939437 15.2498 1.06255Z" fill="white"/>
</svg>
